<?xml version="1.0" encoding="utf-8"?>
<!-- Generator: Adobe Illustrator 19.2.0, SVG Export Plug-In . SVG Version: 6.00 Build 0)  -->
<svg version="1.1" xmlns="http://www.w3.org/2000/svg" xmlns:xlink="http://www.w3.org/1999/xlink" x="0px" y="0px" width="111px"
	 height="24px" viewBox="0 0 111 24" enable-background="new 0 0 111 24" xml:space="preserve">
<g id="Drag-drop">
</g>
<g id="list-search-icon">
</g>
<g id="close">
</g>
<g id="breadcrumbs-arrow">
</g>
<g id="caret">
</g>
<g id="Checkbox">
</g>
<g id="PPT">
</g>
<g id="Excel">
</g>
<g id="Word">
</g>
<g id="PDF">
</g>
<g id="TED">
</g>
<g id="Undefined">
</g>
<g id="Sound">
</g>
<g id="HTML">
</g>
<g id="XML">
</g>
<g id="Database">
</g>
<g id="Video">
</g>
<g id="Archive">
</g>
<g id="Media_Icon">
</g>
<g id="Text_Files">
</g>
<g id="Open_Folder">
</g>
<g id="Folder">
	<path fill="#0089D9" d="M21,5h-9.5l-1.1-1.6C9.9,2.5,9,2,8,2H3C1.3,2,0,3.3,0,5v14c0,1.7,1.3,3,3,3h18c1.7,0,3-1.3,3-3V8
		C24,6.3,22.7,5,21,5z M3,4h5c0.3,0,0.7,0.2,0.8,0.5l1,1.5H2V5C2,4.4,2.4,4,3,4z M22,19c0,0.6-0.4,1-1,1H3c-0.6,0-1-0.4-1-1V7h19
		c0.6,0,1,0.4,1,1V19z"/>
	<path fill="#C8C8C8" d="M50,5h-9.5l-1.1-1.6C38.9,2.5,38,2,37,2h-5c-1.7,0-3,1.3-3,3v14c0,1.7,1.3,3,3,3h18c1.7,0,3-1.3,3-3V8
		C53,6.3,51.7,5,50,5z M32,4h5c0.3,0,0.7,0.2,0.8,0.5l1,1.5H31V5C31,4.4,31.4,4,32,4z M51,19c0,0.6-0.4,1-1,1H32c-0.6,0-1-0.4-1-1V7
		h19c0.6,0,1,0.4,1,1V19z"/>
	<path fill="#39A6E6" d="M79,5h-9.5l-1.1-1.6C67.9,2.5,67,2,66,2h-5c-1.7,0-3,1.3-3,3v14c0,1.7,1.3,3,3,3h18c1.7,0,3-1.3,3-3V8
		C82,6.3,80.7,5,79,5z M61,4h5c0.3,0,0.7,0.2,0.8,0.5l1,1.5H60V5C60,4.4,60.4,4,61,4z M80,19c0,0.6-0.4,1-1,1H61c-0.6,0-1-0.4-1-1V7
		h19c0.6,0,1,0.4,1,1V19z"/>
	<path fill="#FFFFFF" d="M108,5h-9.5l-1.1-1.6C96.9,2.5,96,2,95,2h-5c-1.7,0-3,1.3-3,3v14c0,1.7,1.3,3,3,3h18c1.7,0,3-1.3,3-3V8
		C111,6.3,109.7,5,108,5z M90,4h5c0.3,0,0.7,0.2,0.8,0.5l1,1.5H89V5C89,4.4,89.4,4,90,4z M109,19c0,0.6-0.4,1-1,1H90
		c-0.6,0-1-0.4-1-1V7h19c0.6,0,1,0.4,1,1V19z"/>
</g>
<g id="Breadcrumb">
</g>
<g id="Share_with_me">
</g>
<g id="Settings">
</g>
<g id="Home">
</g>
<g id="Circle">
</g>
</svg>
