<?xml version="1.0" encoding="utf-8"?>
<!-- Generator: Adobe Illustrator 19.2.0, SVG Export Plug-In . SVG Version: 6.00 Build 0)  -->
<svg version="1.1" xmlns="http://www.w3.org/2000/svg" xmlns:xlink="http://www.w3.org/1999/xlink" x="0px" y="0px" width="111px"
	 height="24px" viewBox="0 0 111 24" enable-background="new 0 0 111 24" xml:space="preserve">
<g id="Drag-drop">
</g>
<g id="list-search-icon">
</g>
<g id="close">
</g>
<g id="breadcrumbs-arrow">
</g>
<g id="caret">
</g>
<g id="Checkbox">
</g>
<g id="PPT">
</g>
<g id="Excel">
</g>
<g id="Word">
</g>
<g id="PDF">
</g>
<g id="TED">
</g>
<g id="Undefined">
</g>
<g id="Sound">
</g>
<g id="HTML">
</g>
<g id="XML">
</g>
<g id="Database">
</g>
<g id="Video">
</g>
<g id="Archive">
</g>
<g id="Media_Icon">
</g>
<g id="Text_Files">
</g>
<g id="Open_Folder">
	<path fill-rule="evenodd" clip-rule="evenodd" fill="#0089D9" d="M23,8V6c0-1-1-2-2-2h-8.5c0,0-1.5-3-3.5-3H4C2.5,1,1,2.5,1,4v4
		C0.5,8,0,8.4,0,9s1,10,1,10c0.2,1.5,1.5,3,3,3h16c1.5,0,2.8-1.5,3-3c0,0,1-9.5,1-10S23.5,8,23,8z M3,4c0-0.5,0.5-1,1-1h5
		c1,0,2.5,3,2.5,3H20c0.5,0,1,0.5,1,1v1H3V4z M21,19c0,0.5-0.5,1-1,1H4c-0.5,0-1-0.5-1-1c0,0-1-8.4-1-9c0-0.6,0.5-1,1-1h18
		c0.5,0,1,0.5,1,1C22,10.5,21,19,21,19z"/>
	<path fill-rule="evenodd" clip-rule="evenodd" fill="#C8C8C8" d="M52,8V6c0-1-1-2-2-2h-8.5c0,0-1.5-3-3.5-3h-5c-1.5,0-3,1.5-3,3v4
		c-0.5,0-1,0.4-1,1s1,10,1,10c0.2,1.5,1.5,3,3,3h16c1.5,0,2.8-1.5,3-3c0,0,1-9.5,1-10S52.5,8,52,8z M32,4c0-0.5,0.5-1,1-1h5
		c1,0,2.5,3,2.5,3H49c0.5,0,1,0.5,1,1v1H32V4z M50,19c0,0.5-0.5,1-1,1H33c-0.5,0-1-0.5-1-1c0,0-1-8.4-1-9c0-0.6,0.5-1,1-1h18
		c0.5,0,1,0.5,1,1C51,10.5,50,19,50,19z"/>
	<path fill-rule="evenodd" clip-rule="evenodd" fill="#39A6E6" d="M81,8V6c0-1-1-2-2-2h-8.5c0,0-1.5-3-3.5-3h-5c-1.5,0-3,1.5-3,3v4
		c-1,0-1,0.4-1,1s1,10,1,10c0.2,1.5,1.5,3,3,3h16c1.5,0,2.8-1.5,3-3c0,0,1-9.5,1-10S81,8,81,8z M61,4c0-0.5,0.5-1,1-1h5
		c1,0,2.5,3,2.5,3H78c0.5,0,1,0.5,1,1v1H61V4z M79,19c0,0.5-0.5,1-1,1H62c-0.5,0-1-0.5-1-1c0,0-1-8.4-1-9c0-0.6,0.5-1,1-1h18
		c0.5,0,1,0.5,1,1C80,10.5,79,19,79,19z"/>
	<path fill-rule="evenodd" clip-rule="evenodd" fill="#FFFFFF" d="M110,8V6c0-1-1-2-2-2h-8.5c0,0-1.5-3-3.5-3h-5c-1.5,0-3,1.5-3,3v4
		c-1,0-1,0.4-1,1s1,10,1,10c0.2,1.5,1.5,3,3,3h16c1.5,0,2.8-1.5,3-3c0,0,1-9.5,1-10S110,8,110,8z M90,4c0-0.5,0.5-1,1-1h5
		c1,0,2.5,3,2.5,3h8.5c0.5,0,1,0.5,1,1v1H90V4z M108,19c0,0.5-0.5,1-1,1H91c-0.5,0-1-0.5-1-1c0,0-1-8.4-1-9c0-0.6,0.5-1,1-1h18
		c0.5,0,1,0.5,1,1C109,10.5,108,19,108,19z"/>
</g>
<g id="Folder">
</g>
<g id="Breadcrumb">
</g>
<g id="Share_with_me">
</g>
<g id="Settings">
</g>
<g id="Home">
</g>
<g id="Circle">
</g>
</svg>
